<?xml version="1.0" encoding="utf-8"?>
<!-- Generator: Adobe Adobe Illustrator 24.2.0, SVG Export Plug-In . SVG Version: 6.00 Build 0)  -->
<svg version="1.1" xmlns="http://www.w3.org/2000/svg" xmlns:xlink="http://www.w3.org/1999/xlink" x="0px" y="0px"
	 viewBox="0 0 2048 281.79" style="enable-background:new 0 0 2048 281.79;" xml:space="preserve">
<style type="text/css">
	.st0{fill:#BE1E2D;stroke:#FFFFFF;stroke-width:13.5243;stroke-miterlimit:10;}
	.st1{fill:#FFFFFF;}
	.st2{opacity:0.5;}
	.st3{clip-path:url(#SVGID_4_);fill:#FFD9DA;}
	.st4{fill:#B00B10;}
	.st5{fill:#5C6069;}
	.st6{fill:#999999;}
	.st7{fill:#666666;}
	.st8{fill:none;stroke:#000000;stroke-width:0.5948;stroke-miterlimit:10;}
	.st9{fill:#4D4D4D;}
	.st10{opacity:0.25;}
	.st11{clip-path:url(#SVGID_6_);fill:#808080;}
	.st12{fill:#A2CAFB;}
	.st13{fill:#F2F2F2;}
	.st14{opacity:0.35;}
	.st15{clip-path:url(#SVGID_8_);fill:#B3B3B3;}
	.st16{fill:#F7941D;}
	.st17{fill:#ED1C24;}
	.st18{fill:#BE1E2D;}
	.st19{clip-path:url(#SVGID_10_);fill:#FFFFFF;}
	.st20{clip-path:url(#SVGID_12_);fill:#CCCCCC;}
	.st21{fill:#CCCCCC;}
	.st22{clip-path:url(#SVGID_14_);fill:#B3B3B3;}
	.st23{fill:#E3EAFF;}
	.st24{fill:#FFF200;}
	.st25{clip-path:url(#SVGID_16_);fill:#999999;}
	.st26{fill:#094573;}
	.st27{clip-path:url(#SVGID_18_);fill:#1B75BC;}
	.st28{clip-path:url(#SVGID_20_);}
	.st29{clip-path:url(#SVGID_22_);fill:#ED1C24;}
	.st30{clip-path:url(#SVGID_22_);fill:none;stroke:#FFFFFF;stroke-width:1.3191;stroke-miterlimit:10;}
	.st31{clip-path:url(#SVGID_22_);fill:#FFFFFF;}
	.st32{clip-path:url(#SVGID_22_);fill:none;stroke:#414042;stroke-width:0.4396;stroke-miterlimit:10;}
	.st33{clip-path:url(#SVGID_22_);}
	.st34{fill:#36903D;}
	.st35{fill:#E0B59D;}
	.st36{fill:url(#SVGID_23_);}
	.st37{fill:none;}
	.st38{fill:#318237;}
	.st39{opacity:0.3;}
	.st40{clip-path:url(#SVGID_25_);}
	.st41{clip-path:url(#SVGID_27_);fill:url(#SVGID_28_);}
	.st42{fill:#58595B;}
	.st43{fill:#414042;}
	.st44{fill:#F9FBFC;}
	.st45{clip-path:url(#SVGID_30_);}
	.st46{clip-path:url(#SVGID_32_);fill:url(#SVGID_33_);}
	.st47{fill:#02662B;}
	.st48{fill:#1E397C;}
	.st49{fill:#231F20;}
	.st50{fill:#A7A9AC;}
	.st51{fill:none;stroke:#318237;stroke-width:3.6995;stroke-miterlimit:10;}
	.st52{fill:#E6E7E8;}
	.st53{fill:none;stroke:#36903D;stroke-width:3.6995;stroke-miterlimit:10;}
	.st54{fill:none;stroke:#41AD49;stroke-width:20.4843;stroke-miterlimit:10;}
	.st55{fill:none;stroke:#3C9F43;stroke-width:7.536;stroke-miterlimit:10;}
	.st56{fill:none;stroke:#3C9F43;stroke-width:9.3857;stroke-miterlimit:10;}
	.st57{fill:#41AD49;}
	.st58{fill:#939598;}
	.st59{fill:#215725;}
	.st60{fill:#3C9F43;}
	.st61{fill:none;stroke:#36903D;stroke-width:5.8348;stroke-miterlimit:10;}
	.st62{fill:none;stroke:#41AD49;stroke-width:32.3074;stroke-miterlimit:10;}
	.st63{fill:none;stroke:#3C9F43;stroke-width:11.8855;stroke-miterlimit:10;}
	.st64{fill:none;stroke:#3C9F43;stroke-width:14.803;stroke-miterlimit:10;}
	.st65{fill:#0055B8;}
	.st66{clip-path:url(#SVGID_35_);}
	.st67{clip-path:url(#SVGID_37_);fill:url(#SVGID_38_);}
	.st68{clip-path:url(#SVGID_40_);}
	.st69{clip-path:url(#SVGID_42_);fill:url(#SVGID_43_);}
	.st70{fill:#644839;}
	.st71{fill:#A1B5FF;}
	.st72{opacity:0.4;}
	.st73{clip-path:url(#SVGID_45_);fill:#0055B8;}
	.st74{clip-path:url(#SVGID_47_);fill:#DCE8EF;}
	.st75{clip-path:url(#SVGID_49_);}
	.st76{clip-path:url(#SVGID_51_);fill:url(#SVGID_52_);}
	.st77{fill:#007934;stroke:#FFFFFF;stroke-width:19.8548;stroke-miterlimit:10;}
	.st78{fill:#007934;}
	.st79{fill:none;stroke:#FFFFFF;stroke-width:7.1247;stroke-miterlimit:10;}
	.st80{fill:none;stroke:#414042;stroke-width:7.1247;stroke-miterlimit:10;}
	.st81{fill:none;stroke:#FFFFFF;stroke-width:7.5215;stroke-miterlimit:10;}
	.st82{fill:none;stroke:#414042;stroke-width:2.8499;stroke-miterlimit:10;}
	.st83{fill:#2D2E3D;}
	.st84{fill:#B5B5B5;}
	.st85{fill:#00A651;}
	.st86{fill:#006838;}
	.st87{fill:#00BBFF;}
	.st88{fill:#6B6B6B;}
	.st89{fill:#737373;}
	.st90{clip-path:url(#SVGID_54_);}
	.st91{fill:#C9C9C9;}
	.st92{fill:#007934;stroke:#FFFFFF;stroke-width:0.3751;stroke-miterlimit:10;}
	.st93{fill:none;stroke:#FFFFFF;stroke-width:0.1346;stroke-miterlimit:10;}
	.st94{fill:none;stroke:#414042;stroke-width:0.1346;stroke-miterlimit:10;}
	.st95{fill:none;stroke:#FFFFFF;stroke-width:0.1421;stroke-miterlimit:10;}
	.st96{fill:none;stroke:#414042;stroke-width:0.0538;stroke-miterlimit:10;}
	.st97{fill:none;stroke:#FFFFFF;stroke-width:1.1424;stroke-miterlimit:10;}
	.st98{fill:none;stroke:#318237;stroke-width:1.95;stroke-miterlimit:10;}
	.st99{fill:#39B54A;}
	.st100{fill:#7D7D7D;}
	.st101{fill:#474747;}
	.st102{fill:#656BD8;}
	.st103{clip-path:url(#SVGID_56_);}
	.st104{fill:#BAE5BD;}
	.st105{fill:url(#SVGID_57_);}
	.st106{clip-path:url(#SVGID_59_);}
	.st107{clip-path:url(#SVGID_61_);fill:url(#SVGID_62_);}
	.st108{clip-path:url(#SVGID_64_);}
	.st109{clip-path:url(#SVGID_66_);fill:url(#SVGID_67_);}
	.st110{fill:none;stroke:#318237;stroke-width:1.4952;stroke-miterlimit:10;}
	.st111{fill:none;stroke:#36903D;stroke-width:1.4952;stroke-miterlimit:10;}
	.st112{fill:none;stroke:#41AD49;stroke-width:8.2787;stroke-miterlimit:10;}
	.st113{fill:none;stroke:#3C9F43;stroke-width:3.0456;stroke-miterlimit:10;}
	.st114{fill:none;stroke:#3C9F43;stroke-width:3.7932;stroke-miterlimit:10;}
	.st115{fill:url(#SVGID_68_);}
	.st116{clip-path:url(#SVGID_70_);}
	.st117{clip-path:url(#SVGID_72_);fill:url(#SVGID_73_);}
	.st118{clip-path:url(#SVGID_75_);}
	.st119{clip-path:url(#SVGID_77_);fill:url(#SVGID_78_);}
	.st120{clip-path:url(#SVGID_80_);fill:#0055B8;}
	.st121{clip-path:url(#SVGID_82_);fill:#DCE8EF;}
	.st122{clip-path:url(#SVGID_84_);}
	.st123{clip-path:url(#SVGID_86_);fill:url(#SVGID_87_);}
	.st124{fill:none;stroke:#FFFFFF;stroke-width:5.23;stroke-miterlimit:10;}
	.st125{fill:none;stroke:#414042;stroke-width:1.743;stroke-miterlimit:10;}
	.st126{fill:#024820;}
	.st127{fill:#047835;}
	.st128{opacity:0.302;}
	.st129{opacity:0.502;}
	.st130{fill:none;stroke:#000000;stroke-width:0.1045;stroke-miterlimit:10;}
	.st131{clip-path:url(#SVGID_89_);fill:#808080;}
	.st132{clip-path:url(#SVGID_91_);fill:#B3B3B3;}
	.st133{clip-path:url(#SVGID_93_);fill:#FFFFFF;}
	.st134{clip-path:url(#SVGID_95_);fill:#CCCCCC;}
	.st135{clip-path:url(#SVGID_97_);fill:#B3B3B3;}
	.st136{clip-path:url(#SVGID_99_);fill:#999999;}
	.st137{clip-path:url(#SVGID_101_);fill:#1B75BC;}
	.st138{fill:none;stroke:#FFFFFF;stroke-width:0.2318;stroke-miterlimit:10;}
	.st139{clip-path:url(#SVGID_103_);}
	.st140{fill:#007934;stroke:#FFFFFF;stroke-width:0.0877;stroke-miterlimit:10;}
	.st141{fill:none;stroke:#FFFFFF;stroke-width:0.0315;stroke-miterlimit:10;}
	.st142{fill:none;stroke:#414042;stroke-width:0.0315;stroke-miterlimit:10;}
	.st143{fill:none;stroke:#FFFFFF;stroke-width:0.0332;stroke-miterlimit:10;}
	.st144{fill:none;stroke:#414042;stroke-width:0.0126;stroke-miterlimit:10;}
	.st145{fill:none;stroke:#FFFFFF;stroke-width:0.267;stroke-miterlimit:10;}
	.st146{fill:none;stroke:#318237;stroke-width:0.4558;stroke-miterlimit:10;}
	.st147{fill:#75121C;}
	.st148{fill:none;stroke:#000000;stroke-width:0.104;stroke-miterlimit:10;}
	.st149{clip-path:url(#SVGID_105_);fill:#808080;}
	.st150{clip-path:url(#SVGID_107_);fill:#B3B3B3;}
	.st151{clip-path:url(#SVGID_109_);fill:#FFFFFF;}
	.st152{clip-path:url(#SVGID_111_);fill:#CCCCCC;}
	.st153{clip-path:url(#SVGID_113_);fill:#B3B3B3;}
	.st154{clip-path:url(#SVGID_115_);fill:#999999;}
	.st155{clip-path:url(#SVGID_117_);fill:#1B75BC;}
	.st156{fill:none;stroke:#FFFFFF;stroke-width:0.2441;stroke-miterlimit:10;}
	.st157{fill:none;stroke:#414042;stroke-width:0.1396;stroke-miterlimit:10;}
	.st158{fill:#5E0009;}
	.st159{fill:#470007;}
	.st160{clip-path:url(#SVGID_119_);}
	.st161{clip-path:url(#SVGID_121_);}
	.st162{fill:none;stroke:#000000;stroke-width:0.1115;stroke-miterlimit:10;}
	.st163{clip-path:url(#SVGID_123_);fill:#808080;}
	.st164{clip-path:url(#SVGID_125_);fill:#B3B3B3;}
	.st165{clip-path:url(#SVGID_127_);fill:#FFFFFF;}
	.st166{clip-path:url(#SVGID_129_);fill:#CCCCCC;}
	.st167{clip-path:url(#SVGID_131_);fill:#B3B3B3;}
	.st168{clip-path:url(#SVGID_133_);fill:#999999;}
	.st169{clip-path:url(#SVGID_135_);fill:#1B75BC;}
	.st170{fill:none;stroke:#FFFFFF;stroke-width:0.2616;stroke-miterlimit:10;}
	.st171{fill:none;stroke:#414042;stroke-width:0.1496;stroke-miterlimit:10;}
	.st172{fill:none;stroke:#000000;stroke-width:0.1409;stroke-miterlimit:10;}
	.st173{clip-path:url(#SVGID_137_);fill:#808080;}
	.st174{clip-path:url(#SVGID_139_);fill:#B3B3B3;}
	.st175{clip-path:url(#SVGID_141_);fill:#FFFFFF;}
	.st176{clip-path:url(#SVGID_143_);fill:#CCCCCC;}
	.st177{clip-path:url(#SVGID_145_);fill:#B3B3B3;}
	.st178{clip-path:url(#SVGID_147_);fill:#999999;}
	.st179{clip-path:url(#SVGID_149_);fill:#1B75BC;}
	.st180{fill:none;stroke:#FFFFFF;stroke-width:0.3308;stroke-miterlimit:10;}
	.st181{fill:none;stroke:#414042;stroke-width:0.1892;stroke-miterlimit:10;}
	.st182{fill:#031C0E;}
	.st183{clip-path:url(#SVGID_151_);}
	.st184{clip-path:url(#SVGID_153_);fill:#808080;}
	.st185{clip-path:url(#SVGID_155_);fill:#B3B3B3;}
	.st186{clip-path:url(#SVGID_157_);fill:#FFFFFF;}
	.st187{clip-path:url(#SVGID_159_);fill:#CCCCCC;}
	.st188{clip-path:url(#SVGID_161_);fill:#B3B3B3;}
	.st189{clip-path:url(#SVGID_163_);fill:#999999;}
	.st190{clip-path:url(#SVGID_165_);fill:#1B75BC;}
	.st191{clip-path:url(#SVGID_167_);}
	.st192{clip-path:url(#SVGID_169_);fill:#808080;}
	.st193{clip-path:url(#SVGID_171_);fill:#B3B3B3;}
	.st194{clip-path:url(#SVGID_173_);fill:#FFFFFF;}
	.st195{clip-path:url(#SVGID_175_);fill:#CCCCCC;}
	.st196{clip-path:url(#SVGID_177_);fill:#B3B3B3;}
	.st197{clip-path:url(#SVGID_179_);fill:#999999;}
	.st198{clip-path:url(#SVGID_181_);fill:#1B75BC;}
	.st199{fill:none;stroke:#FFFFFF;stroke-width:1.396;stroke-miterlimit:10;}
	.st200{fill:none;stroke:#414042;stroke-width:0.7984;stroke-miterlimit:10;}
</style>
<g id="Layer_1">
</g>
<g id="Layer_2">
</g>
<g id="Layer_5">
</g>
<g id="Layer_3">
</g>
<g id="Layer_7">
</g>
<g id="Layer_8">
	<g>
		<rect x="0" y="0" class="st126" width="2048" height="281.79"/>
		<rect x="0" y="0" class="st127" width="2048" height="140.39"/>
		<g>
			<g>
				<rect x="19.87" y="30.56" class="st37" width="1292.01" height="109.84"/>
				<path class="st126" d="M94.47,118.54c-7.46,4.42-14.66,6.07-24.02,6.07c-26.55,0-45-18.2-45-43.99c0-25.66,18.46-44.12,45-44.12
					s45.01,18.46,45.01,44.12c0,15.8-6.57,24.9-11.12,29.96l13.65,13.78L101.42,126L94.47,118.54z M92.95,98.82
					c2.65-3.54,5.56-8.85,5.56-18.2c0-17.07-11.63-29.2-28.07-29.2s-28.06,12.14-28.06,29.2c0,16.94,11.5,29.08,28.44,29.08
					c5.69,0,9.48-1.26,12.51-2.78L66.15,90.23l17.07-1.39L92.95,98.82z"/>
				<path class="st126" d="M157.17,52.55v70.16h-16.43V52.55h-18.96V38.39h54.36v14.16H157.17z"/>
				<path class="st126" d="M196.24,118.54l20.1-26.3c-2.65,0.89-5.94,1.64-8.98,1.64c-5.94,0-13.53-2.4-18.46-7.21
					c-4.42-4.17-7.96-11.38-7.96-20.23c0-7.08,2.02-14.16,7.71-20.35c7.21-7.84,15.42-9.61,24.02-9.61c8.98,0,17.07,1.64,24.02,8.6
					c4.55,4.55,8.22,11,8.22,20.48c0,10.24-4.68,18.46-10.62,26.3l-24.78,33.12L196.24,118.54z M201.93,53.94
					c-2.02,2.02-4.55,5.56-4.55,11.12c0,5.06,1.77,8.85,4.68,11.63c3.16,3.03,6.7,4.05,10.87,4.05c4.55,0,7.96-1.39,11-4.55
					c3.03-3.16,4.55-6.7,4.55-11c0-5.31-2.15-8.98-4.68-11.38c-2.15-2.02-5.82-4.17-10.87-4.17
					C207.61,49.65,204.07,51.79,201.93,53.94z"/>
				<path class="st126" d="M312.16,38.39c11.63,0,17.57,3.03,21.49,6.32c6.45,5.44,8.34,12.64,8.34,18.96
					c0,8.22-3.29,15.42-9.86,19.85c-2.15,1.52-5.18,2.91-9.23,3.67l26.3,35.52h-20.48l-22.5-33.88h-2.02v33.88h-16.43V38.39H312.16z
					 M304.2,77.21h4.68c3.16,0,16.18-0.38,16.18-12.77c0-12.52-12.89-12.64-15.93-12.64h-4.93V77.21z"/>
				<path class="st126" d="M411.78,107.42c-1.64,4.05-7.84,17.07-26.93,17.07c-8.85,0-15.55-2.53-20.99-7.71
					c-6.07-5.69-8.6-12.77-8.6-21.36c0-10.87,4.42-17.57,8.34-21.49c6.45-6.32,14.03-7.71,20.61-7.71c11.12,0,17.57,4.42,21.37,8.98
					c5.81,6.95,6.57,15.55,6.57,21.49v1.26H371.2c0,3.29,0.89,6.83,2.66,9.23c1.64,2.28,5.06,5.18,11,5.18
					c5.82,0,10.24-2.78,12.77-7.21L411.78,107.42z M397.62,88.08c-1.26-7.46-7.33-11-13.02-11c-5.69,0-11.63,3.67-12.89,11H397.62z"
					/>
				<path class="st126" d="M453.87,81c-3.67-3.41-7.33-3.67-8.98-3.67c-3.67,0-5.94,1.77-5.94,4.42c0,1.39,0.63,3.54,4.93,4.93
					l3.67,1.14c4.3,1.39,10.75,3.54,13.91,7.84c1.64,2.28,2.78,5.56,2.78,9.1c0,4.93-1.64,9.86-6.07,13.91
					c-4.42,4.05-9.73,5.82-16.43,5.82c-11.38,0-17.83-5.44-21.24-9.1l8.09-9.36c3.03,3.54,7.58,6.32,12.14,6.32
					c4.3,0,7.58-2.15,7.58-5.94c0-3.41-2.78-4.8-4.8-5.56l-3.54-1.26c-3.92-1.39-8.47-3.16-11.76-6.57
					c-2.53-2.65-4.17-6.07-4.17-10.49c0-5.31,2.53-9.73,5.69-12.39c4.3-3.41,9.86-3.92,14.29-3.92c4.04,0,10.49,0.51,17.45,5.82
					L453.87,81z"/>
				<path class="st126" d="M525.8,73.92c5.44,4.93,9.23,12.52,9.23,21.49c0,8.85-3.79,16.43-9.23,21.36
					c-4.68,4.3-11.76,7.71-22.12,7.71c-10.37,0-17.45-3.41-22.12-7.71c-5.44-4.93-9.23-12.52-9.23-21.36
					c0-8.98,3.79-16.56,9.23-21.49c4.68-4.3,11.76-7.71,22.12-7.71C514.05,66.21,521.13,69.62,525.8,73.92z M519.1,95.41
					c0-8.6-6.57-15.55-15.42-15.55c-8.85,0-15.42,6.95-15.42,15.55c0,8.34,6.45,15.42,15.42,15.42
					C512.66,110.83,519.1,103.75,519.1,95.41z"/>
				<path class="st126" d="M562.34,67.98v30.97c0,2.91,0.25,6.83,3.29,9.61c1.9,1.64,4.93,2.78,7.84,2.78
					c2.91,0,5.94-1.14,7.84-2.78c3.03-2.78,3.29-6.7,3.29-9.61V67.98h15.42v33.5c0,4.93-0.63,11.5-6.7,16.81
					c-5.06,4.42-13.15,6.19-19.85,6.19s-14.79-1.77-19.85-6.19c-6.07-5.31-6.7-11.88-6.7-16.81v-33.5H562.34z"/>
				<path class="st126" d="M614.68,67.98h15.42v8.22c2.4-4.68,5.69-6.95,6.83-7.59c2.4-1.52,5.44-2.4,9.1-2.4
					c2.65,0,4.8,0.63,6.57,1.26l-2.02,14.41c-2.02-1.39-4.05-2.02-7.21-2.02c-2.91,0-7.21,0.63-10.24,4.42
					c-2.91,3.67-3.03,8.34-3.03,12.14v26.3h-15.42V67.98z"/>
				<path class="st126" d="M701.4,84.66c-3.29-3.03-7.33-4.8-12.64-4.8c-10.24,0-15.42,7.46-15.42,15.42
					c0,8.98,6.7,15.55,15.93,15.55c3.41,0,7.96-1.01,12.14-4.8v15.04c-3.03,1.52-7.84,3.41-14.16,3.41c-8.6,0-16.18-3.29-21.11-7.96
					c-4.17-3.92-8.72-10.75-8.72-20.99c0-9.61,3.92-17.32,9.48-22.25c6.7-5.94,14.41-7.08,19.72-7.08c5.69,0,10.37,1.14,14.79,3.29
					V84.66z"/>
				<path class="st126" d="M766.76,107.42c-1.64,4.05-7.84,17.07-26.93,17.07c-8.85,0-15.55-2.53-20.99-7.71
					c-6.07-5.69-8.6-12.77-8.6-21.36c0-10.87,4.42-17.57,8.34-21.49c6.45-6.32,14.03-7.71,20.61-7.71c11.12,0,17.57,4.42,21.37,8.98
					c5.82,6.95,6.57,15.55,6.57,21.49v1.26h-40.96c0,3.29,0.89,6.83,2.66,9.23c1.64,2.28,5.06,5.18,11,5.18
					c5.82,0,10.24-2.78,12.77-7.21L766.76,107.42z M752.6,88.08c-1.26-7.46-7.33-11-13.02-11c-5.69,0-11.63,3.67-12.89,11H752.6z"/>
				<path class="st126" d="M808.85,81c-3.67-3.41-7.33-3.67-8.98-3.67c-3.67,0-5.94,1.77-5.94,4.42c0,1.39,0.63,3.54,4.93,4.93
					l3.67,1.14c4.3,1.39,10.75,3.54,13.91,7.84c1.64,2.28,2.78,5.56,2.78,9.1c0,4.93-1.64,9.86-6.07,13.91
					c-4.42,4.05-9.73,5.82-16.43,5.82c-11.38,0-17.83-5.44-21.24-9.1l8.09-9.36c3.03,3.54,7.58,6.32,12.14,6.32
					c4.3,0,7.58-2.15,7.58-5.94c0-3.41-2.78-4.8-4.8-5.56l-3.54-1.26c-3.92-1.39-8.47-3.16-11.76-6.57
					c-2.53-2.65-4.17-6.07-4.17-10.49c0-5.31,2.53-9.73,5.69-12.39c4.3-3.41,9.86-3.92,14.29-3.92c4.04,0,10.49,0.51,17.45,5.82
					L808.85,81z"/>
			</g>
			<g>
				<rect x="12.35" y="23.03" class="st37" width="1292.01" height="109.84"/>
				<path class="st1" d="M86.93,111.02c-7.46,4.42-14.66,6.07-24.02,6.07c-26.55,0-45-18.2-45-43.99c0-25.66,18.46-44.12,45-44.12
					s45.01,18.46,45.01,44.12c0,15.8-6.57,24.9-11.12,29.96l13.65,13.78l-16.56,1.64L86.93,111.02z M85.42,91.3
					c2.65-3.54,5.56-8.85,5.56-18.2c0-17.07-11.63-29.2-28.07-29.2s-28.06,12.14-28.06,29.2c0,16.94,11.5,29.08,28.44,29.08
					c5.69,0,9.48-1.26,12.51-2.78L58.62,82.7l17.07-1.39L85.42,91.3z"/>
				<path class="st1" d="M149.64,45.03v70.16H133.2V45.03h-18.96V30.87h54.36v14.16H149.64z"/>
				<path class="st1" d="M188.7,111.02l20.1-26.3c-2.65,0.89-5.94,1.64-8.98,1.64c-5.94,0-13.53-2.4-18.46-7.21
					c-4.42-4.17-7.96-11.38-7.96-20.23c0-7.08,2.02-14.16,7.71-20.35c7.21-7.84,15.42-9.61,24.02-9.61c8.98,0,17.07,1.64,24.02,8.6
					c4.55,4.55,8.22,11,8.22,20.48c0,10.24-4.68,18.46-10.62,26.3l-24.78,33.12L188.7,111.02z M194.39,46.42
					c-2.02,2.02-4.55,5.56-4.55,11.12c0,5.06,1.77,8.85,4.68,11.63c3.16,3.03,6.7,4.05,10.87,4.05c4.55,0,7.96-1.39,11-4.55
					c3.03-3.16,4.55-6.7,4.55-11c0-5.31-2.15-8.98-4.68-11.38c-2.15-2.02-5.82-4.17-10.87-4.17
					C200.08,42.12,196.54,44.27,194.39,46.42z"/>
				<path class="st1" d="M304.62,30.87c11.63,0,17.57,3.03,21.49,6.32c6.45,5.44,8.34,12.64,8.34,18.96
					c0,8.22-3.29,15.42-9.86,19.85c-2.15,1.52-5.18,2.91-9.23,3.67l26.3,35.52h-20.48l-22.5-33.88h-2.02v33.88h-16.43V30.87H304.62z
					 M296.66,69.68h4.68c3.16,0,16.18-0.38,16.18-12.77c0-12.52-12.89-12.64-15.93-12.64h-4.93V69.68z"/>
				<path class="st1" d="M404.24,99.89c-1.64,4.05-7.84,17.07-26.93,17.07c-8.85,0-15.55-2.53-20.99-7.71
					c-6.07-5.69-8.6-12.77-8.6-21.36c0-10.87,4.42-17.57,8.34-21.49c6.45-6.32,14.03-7.71,20.61-7.71c11.12,0,17.57,4.42,21.37,8.98
					c5.81,6.95,6.57,15.55,6.57,21.49v1.26h-40.96c0,3.29,0.89,6.83,2.66,9.23c1.64,2.28,5.06,5.18,11,5.18
					c5.82,0,10.24-2.78,12.77-7.21L404.24,99.89z M390.08,80.55c-1.26-7.46-7.33-11-13.02-11c-5.69,0-11.63,3.67-12.89,11H390.08z"
					/>
				<path class="st1" d="M446.34,73.47c-3.67-3.41-7.33-3.67-8.98-3.67c-3.67,0-5.94,1.77-5.94,4.42c0,1.39,0.63,3.54,4.93,4.93
					l3.67,1.14c4.3,1.39,10.75,3.54,13.91,7.84c1.64,2.28,2.78,5.56,2.78,9.1c0,4.93-1.64,9.86-6.07,13.91
					c-4.42,4.05-9.73,5.82-16.43,5.82c-11.38,0-17.83-5.44-21.24-9.1l8.09-9.36c3.03,3.54,7.58,6.32,12.14,6.32
					c4.3,0,7.58-2.15,7.58-5.94c0-3.41-2.78-4.8-4.8-5.56l-3.54-1.26c-3.92-1.39-8.47-3.16-11.76-6.57
					c-2.53-2.65-4.17-6.07-4.17-10.49c0-5.31,2.53-9.73,5.69-12.39c4.3-3.41,9.86-3.92,14.29-3.92c4.04,0,10.49,0.51,17.45,5.82
					L446.34,73.47z"/>
				<path class="st1" d="M518.27,66.39c5.44,4.93,9.23,12.52,9.23,21.49c0,8.85-3.79,16.43-9.23,21.36
					c-4.68,4.3-11.76,7.71-22.12,7.71s-17.45-3.41-22.12-7.71c-5.44-4.93-9.23-12.52-9.23-21.36c0-8.98,3.79-16.56,9.23-21.49
					c4.68-4.3,11.76-7.71,22.12-7.71S513.59,62.09,518.27,66.39z M511.57,87.88c0-8.6-6.57-15.55-15.42-15.55
					c-8.85,0-15.42,6.95-15.42,15.55c0,8.34,6.45,15.42,15.42,15.42S511.57,96.23,511.57,87.88z"/>
				<path class="st1" d="M554.8,60.45v30.97c0,2.91,0.25,6.83,3.29,9.61c1.9,1.64,4.93,2.78,7.84,2.78c2.91,0,5.94-1.14,7.84-2.78
					c3.03-2.78,3.29-6.7,3.29-9.61V60.45h15.42v33.5c0,4.93-0.63,11.5-6.7,16.81c-5.06,4.42-13.15,6.19-19.85,6.19
					s-14.79-1.77-19.85-6.19c-6.07-5.31-6.7-11.88-6.7-16.81v-33.5H554.8z"/>
				<path class="st1" d="M607.14,60.45h15.42v8.22c2.4-4.68,5.69-6.95,6.83-7.59c2.4-1.52,5.44-2.4,9.1-2.4
					c2.65,0,4.8,0.63,6.57,1.26l-2.02,14.41c-2.02-1.39-4.05-2.02-7.21-2.02c-2.91,0-7.21,0.63-10.24,4.42
					c-2.91,3.67-3.03,8.34-3.03,12.14v26.3h-15.42V60.45z"/>
				<path class="st1" d="M693.86,77.14c-3.29-3.03-7.33-4.8-12.64-4.8c-10.24,0-15.42,7.46-15.42,15.42
					c0,8.98,6.7,15.55,15.93,15.55c3.41,0,7.96-1.01,12.14-4.8v15.04c-3.03,1.52-7.84,3.41-14.16,3.41c-8.6,0-16.18-3.29-21.11-7.96
					c-4.17-3.92-8.72-10.75-8.72-20.99c0-9.61,3.92-17.32,9.48-22.25c6.7-5.94,14.41-7.08,19.72-7.08c5.69,0,10.37,1.14,14.79,3.29
					V77.14z"/>
				<path class="st1" d="M759.22,99.89c-1.64,4.05-7.84,17.07-26.93,17.07c-8.85,0-15.55-2.53-20.99-7.71
					c-6.07-5.69-8.6-12.77-8.6-21.36c0-10.87,4.42-17.57,8.34-21.49c6.45-6.32,14.03-7.71,20.61-7.71c11.12,0,17.57,4.42,21.37,8.98
					c5.82,6.95,6.57,15.55,6.57,21.49v1.26h-40.96c0,3.29,0.89,6.83,2.66,9.23c1.64,2.28,5.06,5.18,11,5.18
					c5.82,0,10.24-2.78,12.77-7.21L759.22,99.89z M745.06,80.55c-1.26-7.46-7.33-11-13.02-11c-5.69,0-11.63,3.67-12.89,11H745.06z"
					/>
				<path class="st1" d="M801.32,73.47c-3.67-3.41-7.33-3.67-8.98-3.67c-3.67,0-5.94,1.77-5.94,4.42c0,1.39,0.63,3.54,4.93,4.93
					L795,80.3c4.3,1.39,10.75,3.54,13.91,7.84c1.64,2.28,2.78,5.56,2.78,9.1c0,4.93-1.64,9.86-6.07,13.91
					c-4.42,4.05-9.73,5.82-16.43,5.82c-11.38,0-17.83-5.44-21.24-9.1l8.09-9.36c3.03,3.54,7.58,6.32,12.14,6.32
					c4.3,0,7.58-2.15,7.58-5.94c0-3.41-2.78-4.8-4.8-5.56l-3.54-1.26c-3.92-1.39-8.47-3.16-11.76-6.57
					c-2.53-2.65-4.17-6.07-4.17-10.49c0-5.31,2.53-9.73,5.69-12.39c4.3-3.41,9.86-3.92,14.29-3.92c4.04,0,10.49,0.51,17.45,5.82
					L801.32,73.47z"/>
			</g>
		</g>
		<g>
			<g>
				<rect x="38.27" y="160.73" class="st37" width="1251.56" height="121.06"/>
				<path class="st182" d="M67.67,225.24h-8.67l-20.53-59.03h12.21l13.19,40.18l14.43-40.71h6.37l13.63,40.71l14.16-40.18h12.21
					l-21.86,59.03h-8.67l-12.92-37.44L67.67,225.24z"/>
				<path class="st182" d="M143.06,166.21v59.03h-11.51v-59.03H143.06z"/>
				<path class="st182" d="M168.02,191.17l21.68-24.96h14.51l-24.96,27.26l26.29,31.77h-15.22l-20.97-26.46l-1.33,1.33v25.13h-11.51
					v-59.03h11.51V191.17z"/>
				<path class="st182" d="M224.3,166.21v59.03h-11.51v-59.03H224.3z"/>
			</g>
			<g id="WIKI_1_">
				<rect x="34.39" y="156.85" class="st37" width="1251.56" height="121.06"/>
				<path class="st127" d="M63.78,221.36h-8.67l-20.53-59.03h12.21l13.19,40.18l14.43-40.71h6.37l13.63,40.71l14.16-40.18h12.21
					l-21.86,59.03h-8.67l-12.92-37.44L63.78,221.36z"/>
				<path class="st127" d="M139.18,162.33v59.03h-11.51v-59.03H139.18z"/>
				<path class="st127" d="M164.14,187.29l21.68-24.96h14.51l-24.96,27.26l26.29,31.77h-15.22l-20.97-26.46l-1.33,1.33v25.13h-11.51
					v-59.03h11.51V187.29z"/>
				<path class="st127" d="M220.42,162.33v59.03h-11.51v-59.03H220.42z"/>
			</g>
		</g>
		<g>
			<g class="st128">
				<path d="M2018.23,37.4h-331.73h-0.01c-4.9,0-8.89,3.98-8.89,8.91V238.6h0.01v11.2c0,4.91,3.98,8.91,8.9,8.91h129.88v16.77
					h-18.69c-2.21,0-4.01,1.8-4.01,4.01v2.32h117.36v-2.32c0-2.21-1.79-4.01-4.01-4.01h-18.69V258.7h129.87
					c4.91,0,8.91-3.99,8.91-8.91v-11.2V46.31C2027.13,41.39,2023.16,37.4,2018.23,37.4z"/>
			</g>
			<g>
				<rect x="1807.29" y="248.11" class="st43" width="71.96" height="20.21"/>
				<path class="st50" d="M2018.03,37.22V240.7c0,4.91-3.99,8.91-8.91,8.91h-331.71c-4.91,0-8.9-3.99-8.9-8.91V37.22
					c0-4.93,3.97-8.91,8.89-8.91h331.73C2014.06,28.31,2018.03,32.29,2018.03,37.22"/>
				<path class="st43" d="M2018.03,37.22v192.29H1668.5V37.22c0-4.93,3.98-8.91,8.89-8.91h331.75
					C2014.06,28.31,2018.03,32.29,2018.03,37.22"/>
				<rect x="1677.1" y="37.22" class="st1" width="332.34" height="182.88"/>
				<path class="st42" d="M1901.95,272.7h-117.36v-2.32c0-2.21,1.79-4.01,4.01-4.01h109.35c2.21,0,4.01,1.79,4.01,4.01V272.7z"/>
				<path class="st83" d="M1722.19,40.05h-41.92c-0.22,0-0.4,0.71-0.4,1.59v173.58c0,0.88,0.18,1.59,0.4,1.59h41.92
					c0.22,0,0.4-0.71,0.4-1.59V41.64C1722.59,40.76,1722.41,40.05,1722.19,40.05"/>
				<g>
					<path class="st52" d="M1732.65,125.27V82.91h135.64v42.36c0,4.34-3.52,7.87-7.87,7.87h-119.91
						C1736.17,133.14,1732.65,129.61,1732.65,125.27z"/>
					<path class="st84" d="M1732.65,82.91v-4.56c0-4.34,3.52-7.87,7.87-7.87h119.91c4.34,0,7.87,3.52,7.87,7.87v4.56H1732.65z"/>
				</g>
				<path class="st52" d="M1873.01,125.28V78.35c0-4.34,3.52-7.87,7.87-7.87h112.05c4.34,0,7.87,3.52,7.87,7.87v46.93
					c0,4.34-3.52,7.87-7.87,7.87h-112.05C1876.53,133.14,1873.01,129.62,1873.01,125.28z"/>
				<path class="st52" d="M1732.65,204.36v-53.69c0-4.34,3.52-7.87,7.87-7.87h252.41c4.34,0,7.87,3.52,7.87,7.87v53.69
					c0,4.34-3.52,7.87-7.87,7.87h-252.41C1736.17,212.22,1732.65,208.7,1732.65,204.36z"/>
				<rect x="1898.29" y="188.56" class="st85" width="6.9" height="17.12"/>
				<rect x="1908.96" y="180.18" class="st17" width="6.9" height="25.5"/>
				<rect x="1919.62" y="168.61" class="st86" width="6.9" height="37.07"/>
				<rect x="1930.28" y="184.82" class="st18" width="6.9" height="20.86"/>
				<g>
					<path class="st87" d="M1857.22,115.81H1742.5c-0.47,0-0.85-0.37-0.85-0.83v-9.22c0-0.46,0.38-0.83,0.85-0.83h114.72
						c0.47,0,0.85,0.37,0.85,0.83v9.22C1858.07,115.43,1857.69,115.81,1857.22,115.81"/>
					<path class="st87" d="M1857.22,102.87H1742.5c-0.47,0-0.85-0.37-0.85-0.83v-9.22c0-0.46,0.38-0.83,0.85-0.83h114.72
						c0.47,0,0.85,0.37,0.85,0.83v9.22C1858.07,102.5,1857.69,102.87,1857.22,102.87"/>
				</g>
				<path class="st38" d="M1994.37,175.62c0,9.24-7.48,16.72-16.72,16.72c-9.23,0-16.72-7.48-16.72-16.72
					c0-9.24,7.49-16.72,16.72-16.72v5.88c-5.97,0-10.84,4.86-10.84,10.84c0,5.98,4.87,10.84,10.84,10.84
					c5.98,0,10.84-4.86,10.84-10.84H1994.37z"/>
				<path class="st18" d="M1983.97,175.62c0,3.48-2.83,6.32-6.32,6.32c-3.48,0-6.32-2.83-6.32-6.32c0-3.48,2.83-6.32,6.32-6.32
					c0.62,0,1.24,0.09,1.81,0.26c2.04,0.62,3.63,2.21,4.24,4.24C1983.88,174.38,1983.97,175,1983.97,175.62"/>
				<path class="st57" d="M1994.27,173.81h-5.94c-0.76-4.53-4.34-8.12-8.88-8.88V159C1987.25,159.83,1993.44,166.02,1994.27,173.81"
					/>
				<path class="st88" d="M1995.93,198.86h-36.56c-0.15,0-0.27-0.12-0.27-0.27v-3.01c0-0.15,0.12-0.27,0.27-0.27h36.56
					c0.15,0,0.27,0.12,0.27,0.27v3.01C1996.21,198.74,1996.08,198.86,1995.93,198.86"/>
				<path class="st89" d="M1995.93,205.37h-36.56c-0.15,0-0.27-0.12-0.27-0.27v-3.01c0-0.15,0.12-0.27,0.27-0.27h36.56
					c0.15,0,0.27,0.12,0.27,0.27v3.01C1996.21,205.25,1996.08,205.37,1995.93,205.37"/>
				<path class="st21" d="M1843.23,54.51v-8.38c0-1.23,1-2.22,2.22-2.22h39.41c1.23,0,2.22,1,2.22,2.22v8.38
					c0,1.23-1,2.22-2.22,2.22h-39.41C1844.22,56.73,1843.23,55.74,1843.23,54.51"/>
				<path class="st21" d="M1890.09,54.51v-8.38c0-1.23,1-2.22,2.22-2.22h39.41c1.23,0,2.22,1,2.22,2.22v8.38
					c0,1.23-1,2.22-2.22,2.22h-39.41C1891.09,56.73,1890.09,55.74,1890.09,54.51"/>
				<path class="st38" d="M1937.18,54.51v-8.38c0-1.23,1-2.22,2.22-2.22h39.41c1.23,0,2.22,1,2.22,2.22v8.38
					c0,1.23-1,2.22-2.22,2.22h-39.41C1938.17,56.73,1937.18,55.74,1937.18,54.51"/>
				<g>
					<g>
						<path d="M1994.48,46.23c2.3,0,4.17,1.87,4.17,4.17c0,2.3-1.87,4.17-4.17,4.17c-2.3,0-4.17-1.87-4.17-4.17
							C1990.31,48.1,1992.18,46.23,1994.48,46.23 M1994.48,44.09c-3.48,0-6.31,2.82-6.31,6.31s2.82,6.31,6.31,6.31
							c3.48,0,6.31-2.82,6.31-6.31S1997.96,44.09,1994.48,44.09L1994.48,44.09z"/>
					</g>
				</g>
				<g>
					<defs>
						<rect id="SVGID_150_" x="1686.09" y="85.44" width="29.08" height="94.8"/>
					</defs>
					<clipPath id="SVGID_2_">
						<use xlink:href="#SVGID_150_"  style="overflow:visible;"/>
					</clipPath>
					<g style="clip-path:url(#SVGID_2_);">
						<rect x="1690.34" y="171.89" class="st91" width="24.79" height="1.04"/>
						<rect x="1690.34" y="174.58" class="st91" width="18.51" height="1.04"/>
						<rect x="1686.09" y="171.89" class="st91" width="3.12" height="3.82"/>
						<rect x="1690.34" y="161.08" class="st91" width="24.79" height="1.04"/>
						<rect x="1690.34" y="163.77" class="st91" width="18.51" height="1.04"/>
						<rect x="1686.09" y="161.08" class="st91" width="3.12" height="3.82"/>
						<rect x="1690.34" y="150.27" class="st91" width="24.79" height="1.04"/>
						<rect x="1690.34" y="152.97" class="st91" width="18.51" height="1.04"/>
						<rect x="1686.09" y="150.27" class="st91" width="3.12" height="3.82"/>
						<rect x="1690.34" y="139.47" class="st91" width="24.79" height="1.04"/>
						<rect x="1690.34" y="142.16" class="st91" width="18.51" height="1.04"/>
						<rect x="1686.09" y="139.47" class="st91" width="3.12" height="3.82"/>
						<rect x="1690.34" y="128.66" class="st91" width="24.79" height="1.04"/>
						<rect x="1690.34" y="131.36" class="st91" width="18.51" height="1.04"/>
						<rect x="1686.09" y="128.66" class="st91" width="3.12" height="3.82"/>
						<rect x="1690.34" y="117.86" class="st91" width="24.79" height="1.04"/>
						<rect x="1690.34" y="120.55" class="st91" width="18.51" height="1.04"/>
						<rect x="1686.09" y="117.86" class="st91" width="3.12" height="3.82"/>
						<rect x="1690.34" y="107.05" class="st91" width="24.79" height="1.04"/>
						<rect x="1690.34" y="109.75" class="st91" width="18.51" height="1.04"/>
						<rect x="1686.09" y="107.05" class="st91" width="3.12" height="3.82"/>
						<rect x="1690.34" y="96.25" class="st91" width="24.79" height="1.04"/>
						<rect x="1690.34" y="98.94" class="st91" width="18.51" height="1.04"/>
						<rect x="1686.09" y="96.25" class="st91" width="3.12" height="3.82"/>
						<rect x="1690.34" y="85.44" class="st91" width="24.79" height="1.04"/>
						<rect x="1690.34" y="88.14" class="st91" width="18.51" height="1.04"/>
						<rect x="1686.09" y="85.44" class="st91" width="3.12" height="3.82"/>
					</g>
				</g>
				<g>
					<path class="st140" d="M1688.11,49.29h0.42c0.23,0,0.46-0.04,0.68-0.13c0.22-0.09,0.39-0.21,0.53-0.36
						c0.22-0.24,0.34-0.65,0.34-1.24v-2.58c0-0.59-0.12-1-0.34-1.24c-0.13-0.15-0.31-0.27-0.53-0.36c-0.22-0.09-0.44-0.13-0.68-0.13
						h-3.49c-0.24,0-0.46,0.04-0.68,0.13c-0.22,0.09-0.39,0.21-0.53,0.36c-0.22,0.24-0.34,0.65-0.34,1.24v2.58
						c0,0.59,0.12,1,0.34,1.24c0.13,0.15,0.31,0.27,0.53,0.36c0.22,0.09,0.44,0.13,0.68,0.13h2.17l0.43,0.8h0.9L1688.11,49.29z
						 M1686.65,48.3h-0.28c-0.25,0-0.43-0.06-0.52-0.18c-0.05-0.09-0.07-0.26-0.07-0.52V46.6l-0.35-0.02v-0.74l0.35,0v-0.88
						c0-0.29,0.04-0.49,0.11-0.57c0.08-0.09,0.23-0.13,0.48-0.13h0.82c0.25,0,0.43,0.06,0.52,0.18c0.05,0.09,0.07,0.26,0.07,0.53
						v0.88l0.32,0l-0.06,0.74l-0.27,0.01v0.92c0,0.25-0.02,0.43-0.05,0.53c-0.03,0.1-0.1,0.18-0.19,0.24l-0.46-0.84h-0.89
						L1686.65,48.3z"/>
					<path class="st78" d="M1688.11,49.29h0.42c0.23,0,0.46-0.04,0.68-0.13c0.22-0.09,0.39-0.21,0.53-0.36
						c0.22-0.24,0.34-0.65,0.34-1.24v-2.58c0-0.59-0.12-1-0.34-1.24c-0.13-0.15-0.31-0.27-0.53-0.36c-0.22-0.09-0.44-0.13-0.68-0.13
						h-3.49c-0.24,0-0.46,0.04-0.68,0.13c-0.22,0.09-0.39,0.21-0.53,0.36c-0.22,0.24-0.34,0.65-0.34,1.24v2.58
						c0,0.59,0.12,1,0.34,1.24c0.13,0.15,0.31,0.27,0.53,0.36c0.22,0.09,0.44,0.13,0.68,0.13h2.17l0.43,0.8h0.9L1688.11,49.29z
						 M1686.65,48.3h-0.28c-0.25,0-0.43-0.06-0.52-0.18c-0.05-0.09-0.07-0.26-0.07-0.52V46.6l-0.35-0.02v-0.74l0.35,0v-0.88
						c0-0.29,0.04-0.49,0.11-0.57c0.08-0.09,0.23-0.13,0.48-0.13h0.82c0.25,0,0.43,0.06,0.52,0.18c0.05,0.09,0.07,0.26,0.07,0.53
						v0.88l0.32,0l-0.06,0.74l-0.27,0.01v0.92c0,0.25-0.02,0.43-0.05,0.53c-0.03,0.1-0.1,0.18-0.19,0.24l-0.46-0.84h-0.89
						L1686.65,48.3z"/>
					<path class="st141" d="M1688.11,49.29h0.42c0.23,0,0.46-0.04,0.68-0.13c0.22-0.09,0.39-0.21,0.53-0.36
						c0.22-0.24,0.34-0.65,0.34-1.24v-2.58c0-0.59-0.12-1-0.34-1.24c-0.13-0.15-0.31-0.27-0.53-0.36c-0.22-0.09-0.44-0.13-0.68-0.13
						h-3.49c-0.24,0-0.46,0.04-0.68,0.13c-0.22,0.09-0.39,0.21-0.53,0.36c-0.22,0.24-0.34,0.65-0.34,1.24v2.58
						c0,0.59,0.12,1,0.34,1.24c0.13,0.15,0.31,0.27,0.53,0.36c0.22,0.09,0.44,0.13,0.68,0.13h2.17l0.43,0.8h0.9L1688.11,49.29z
						 M1686.65,48.3h-0.28c-0.25,0-0.43-0.06-0.52-0.18c-0.05-0.09-0.07-0.26-0.07-0.52V46.6l-0.35-0.02v-0.74l0.35,0v-0.88
						c0-0.29,0.04-0.49,0.11-0.57c0.08-0.09,0.23-0.13,0.48-0.13h0.82c0.25,0,0.43,0.06,0.52,0.18c0.05,0.09,0.07,0.26,0.07,0.53
						v0.88l0.32,0l-0.06,0.74l-0.27,0.01v0.92c0,0.25-0.02,0.43-0.05,0.53c-0.03,0.1-0.1,0.18-0.19,0.24l-0.46-0.84h-0.89
						L1686.65,48.3z"/>
					<path class="st142" d="M1688.11,49.29h0.42c0.23,0,0.46-0.04,0.68-0.13c0.22-0.09,0.39-0.21,0.53-0.36
						c0.22-0.24,0.34-0.65,0.34-1.24v-2.58c0-0.59-0.12-1-0.34-1.24c-0.13-0.15-0.31-0.27-0.53-0.36c-0.22-0.09-0.44-0.13-0.68-0.13
						h-3.49c-0.24,0-0.46,0.04-0.68,0.13c-0.22,0.09-0.39,0.21-0.53,0.36c-0.22,0.24-0.34,0.65-0.34,1.24v2.58
						c0,0.59,0.12,1,0.34,1.24c0.13,0.15,0.31,0.27,0.53,0.36c0.22,0.09,0.44,0.13,0.68,0.13h2.17l0.43,0.8h0.9L1688.11,49.29z
						 M1686.65,48.3h-0.28c-0.25,0-0.43-0.06-0.52-0.18c-0.05-0.09-0.07-0.26-0.07-0.52V46.6l-0.35-0.02v-0.74l0.35,0v-0.88
						c0-0.29,0.04-0.49,0.11-0.57c0.08-0.09,0.23-0.13,0.48-0.13h0.82c0.25,0,0.43,0.06,0.52,0.18c0.05,0.09,0.07,0.26,0.07,0.53
						v0.88l0.32,0l-0.06,0.74l-0.27,0.01v0.92c0,0.25-0.02,0.43-0.05,0.53c-0.03,0.1-0.1,0.18-0.19,0.24l-0.46-0.84h-0.89
						L1686.65,48.3z"/>
					<path class="st1" d="M1686.19,46.61c-0.02,0.02-0.05,0.04-0.08,0.06c-0.03,0.01-0.07,0.02-0.11,0.02h-0.07l0.07,0.13h-0.14
						l-0.07-0.13h-0.35c-0.04,0-0.07-0.01-0.11-0.02c-0.03-0.01-0.06-0.03-0.08-0.06c-0.04-0.04-0.05-0.1-0.05-0.2V46
						c0-0.09,0.02-0.16,0.05-0.2c0.02-0.02,0.05-0.04,0.08-0.06c0.03-0.01,0.07-0.02,0.11-0.02h0.56c0.04,0,0.07,0.01,0.11,0.02
						c0.03,0.01,0.06,0.03,0.08,0.06c0.04,0.04,0.05,0.1,0.05,0.2v0.41C1686.24,46.51,1686.22,46.57,1686.19,46.61 M1685.87,46
						c0-0.04,0-0.07-0.01-0.08c-0.01-0.02-0.04-0.03-0.08-0.03h-0.13c-0.04,0-0.06,0.01-0.08,0.02c-0.01,0.01-0.02,0.04-0.02,0.09
						v0.42c0,0.04,0,0.07,0.01,0.08c0.01,0.02,0.04,0.03,0.08,0.03h0.05l-0.07-0.14h0.14l0.07,0.13c0.02-0.01,0.03-0.02,0.03-0.04
						c0.01-0.02,0.01-0.04,0.01-0.08V46z M1687.21,45.89c-0.02,0-0.04-0.01-0.08-0.01h-0.17v0.66c0,0.06,0.02,0.11,0.04,0.14h-0.45
						c0.02-0.03,0.04-0.08,0.04-0.14v-0.66h-0.17c-0.03,0-0.06,0-0.08,0.01c-0.02,0-0.03,0.01-0.05,0.02l0.03-0.19h0.9l0.03,0.19
						C1687.24,45.9,1687.23,45.9,1687.21,45.89 M1688.26,46.66c-0.03,0.02-0.08,0.03-0.15,0.03h-0.72l-0.03-0.19
						c0.02,0.01,0.05,0.02,0.07,0.03c0.02,0,0.06,0.01,0.12,0.01h0.3c0.06,0,0.09-0.01,0.11-0.02c0.01-0.01,0.02-0.04,0.02-0.09
						v-0.14c-0.02,0.05-0.06,0.08-0.12,0.07h-0.29c-0.05,0-0.08,0-0.11-0.01c-0.02-0.01-0.04-0.02-0.06-0.04
						c-0.02-0.02-0.03-0.04-0.04-0.07c-0.01-0.03-0.01-0.06-0.01-0.11v-0.18c0-0.05,0-0.08,0.01-0.11c0.01-0.03,0.03-0.05,0.05-0.07
						c0.04-0.03,0.09-0.04,0.15-0.05h0.5l0.05,0c0.1,0,0.17,0.03,0.21,0.09c0.02,0.03,0.03,0.08,0.03,0.15v0.48l0,0.04
						C1688.34,46.57,1688.32,46.62,1688.26,46.66 M1687.98,45.98c0-0.04,0-0.07-0.01-0.08c-0.01-0.01-0.03-0.02-0.07-0.02h-0.11
						c-0.03,0-0.06,0.01-0.07,0.02c-0.01,0.01-0.01,0.04-0.01,0.08v0.13c0,0.04,0,0.07,0.01,0.08c0.01,0.01,0.03,0.02,0.07,0.02
						h0.11c0.04,0,0.06-0.01,0.07-0.02c0.01-0.01,0.01-0.04,0.01-0.08V45.98z"/>
					<path class="st143" d="M1686.19,46.61c-0.02,0.02-0.05,0.04-0.08,0.06c-0.03,0.01-0.07,0.02-0.11,0.02h-0.07l0.07,0.13h-0.14
						l-0.07-0.13h-0.35c-0.04,0-0.07-0.01-0.11-0.02c-0.03-0.01-0.06-0.03-0.08-0.06c-0.04-0.04-0.05-0.1-0.05-0.2V46
						c0-0.09,0.02-0.16,0.05-0.2c0.02-0.02,0.05-0.04,0.08-0.06c0.03-0.01,0.07-0.02,0.11-0.02h0.56c0.04,0,0.07,0.01,0.11,0.02
						c0.03,0.01,0.06,0.03,0.08,0.06c0.04,0.04,0.05,0.1,0.05,0.2v0.41C1686.24,46.51,1686.22,46.57,1686.19,46.61z M1685.87,46
						c0-0.04,0-0.07-0.01-0.08c-0.01-0.02-0.04-0.03-0.08-0.03h-0.13c-0.04,0-0.06,0.01-0.08,0.02c-0.01,0.01-0.02,0.04-0.02,0.09
						v0.42c0,0.04,0,0.07,0.01,0.08c0.01,0.02,0.04,0.03,0.08,0.03h0.05l-0.07-0.14h0.14l0.07,0.13c0.02-0.01,0.03-0.02,0.03-0.04
						c0.01-0.02,0.01-0.04,0.01-0.08V46z M1687.21,45.89c-0.02,0-0.04-0.01-0.08-0.01h-0.17v0.66c0,0.06,0.02,0.11,0.04,0.14h-0.45
						c0.02-0.03,0.04-0.08,0.04-0.14v-0.66h-0.17c-0.03,0-0.06,0-0.08,0.01c-0.02,0-0.03,0.01-0.05,0.02l0.03-0.19h0.9l0.03,0.19
						C1687.24,45.9,1687.23,45.9,1687.21,45.89z M1688.26,46.66c-0.03,0.02-0.08,0.03-0.15,0.03h-0.72l-0.03-0.19
						c0.02,0.01,0.05,0.02,0.07,0.03c0.02,0,0.06,0.01,0.12,0.01h0.3c0.06,0,0.09-0.01,0.11-0.02c0.01-0.01,0.02-0.04,0.02-0.09
						v-0.14c-0.02,0.05-0.06,0.08-0.12,0.07h-0.29c-0.05,0-0.08,0-0.11-0.01c-0.02-0.01-0.04-0.02-0.06-0.04
						c-0.02-0.02-0.03-0.04-0.04-0.07c-0.01-0.03-0.01-0.06-0.01-0.11v-0.18c0-0.05,0-0.08,0.01-0.11c0.01-0.03,0.03-0.05,0.05-0.07
						c0.04-0.03,0.09-0.04,0.15-0.05h0.5l0.05,0c0.1,0,0.17,0.03,0.21,0.09c0.02,0.03,0.03,0.08,0.03,0.15v0.48l0,0.04
						C1688.34,46.57,1688.32,46.62,1688.26,46.66z M1687.98,45.98c0-0.04,0-0.07-0.01-0.08c-0.01-0.01-0.03-0.02-0.07-0.02h-0.11
						c-0.03,0-0.06,0.01-0.07,0.02c-0.01,0.01-0.01,0.04-0.01,0.08v0.13c0,0.04,0,0.07,0.01,0.08c0.01,0.01,0.03,0.02,0.07,0.02
						h0.11c0.04,0,0.06-0.01,0.07-0.02c0.01-0.01,0.01-0.04,0.01-0.08V45.98z"/>
					<path class="st144" d="M1686.19,46.61c-0.02,0.02-0.05,0.04-0.08,0.06c-0.03,0.01-0.07,0.02-0.11,0.02h-0.07l0.07,0.13h-0.14
						l-0.07-0.13h-0.35c-0.04,0-0.07-0.01-0.11-0.02c-0.03-0.01-0.06-0.03-0.08-0.06c-0.04-0.04-0.05-0.1-0.05-0.2V46
						c0-0.09,0.02-0.16,0.05-0.2c0.02-0.02,0.05-0.04,0.08-0.06c0.03-0.01,0.07-0.02,0.11-0.02h0.56c0.04,0,0.07,0.01,0.11,0.02
						c0.03,0.01,0.06,0.03,0.08,0.06c0.04,0.04,0.05,0.1,0.05,0.2v0.41C1686.24,46.51,1686.22,46.57,1686.19,46.61z M1685.87,46
						c0-0.04,0-0.07-0.01-0.08c-0.01-0.02-0.04-0.03-0.08-0.03h-0.13c-0.04,0-0.06,0.01-0.08,0.02c-0.01,0.01-0.02,0.04-0.02,0.09
						v0.42c0,0.04,0,0.07,0.01,0.08c0.01,0.02,0.04,0.03,0.08,0.03h0.05l-0.07-0.14h0.14l0.07,0.13c0.02-0.01,0.03-0.02,0.03-0.04
						c0.01-0.02,0.01-0.04,0.01-0.08V46z M1687.21,45.89c-0.02,0-0.04-0.01-0.08-0.01h-0.17v0.66c0,0.06,0.02,0.11,0.04,0.14h-0.45
						c0.02-0.03,0.04-0.08,0.04-0.14v-0.66h-0.17c-0.03,0-0.06,0-0.08,0.01c-0.02,0-0.03,0.01-0.05,0.02l0.03-0.19h0.9l0.03,0.19
						C1687.24,45.9,1687.23,45.9,1687.21,45.89z M1688.26,46.66c-0.03,0.02-0.08,0.03-0.15,0.03h-0.72l-0.03-0.19
						c0.02,0.01,0.05,0.02,0.07,0.03c0.02,0,0.06,0.01,0.12,0.01h0.3c0.06,0,0.09-0.01,0.11-0.02c0.01-0.01,0.02-0.04,0.02-0.09
						v-0.14c-0.02,0.05-0.06,0.08-0.12,0.07h-0.29c-0.05,0-0.08,0-0.11-0.01c-0.02-0.01-0.04-0.02-0.06-0.04
						c-0.02-0.02-0.03-0.04-0.04-0.07c-0.01-0.03-0.01-0.06-0.01-0.11v-0.18c0-0.05,0-0.08,0.01-0.11c0.01-0.03,0.03-0.05,0.05-0.07
						c0.04-0.03,0.09-0.04,0.15-0.05h0.5l0.05,0c0.1,0,0.17,0.03,0.21,0.09c0.02,0.03,0.03,0.08,0.03,0.15v0.48l0,0.04
						C1688.34,46.57,1688.32,46.62,1688.26,46.66z M1687.98,45.98c0-0.04,0-0.07-0.01-0.08c-0.01-0.01-0.03-0.02-0.07-0.02h-0.11
						c-0.03,0-0.06,0.01-0.07,0.02c-0.01,0.01-0.01,0.04-0.01,0.08v0.13c0,0.04,0,0.07,0.01,0.08c0.01,0.01,0.03,0.02,0.07,0.02
						h0.11c0.04,0,0.06-0.01,0.07-0.02c0.01-0.01,0.01-0.04,0.01-0.08V45.98z"/>
				</g>
				<g>
					<path class="st1" d="M1694.12,48.32c-0.18,0.13-0.46,0.29-1,0.29c-0.56,0-0.96-0.17-1.31-0.53c-0.41-0.42-0.56-0.95-0.56-1.42
						c0-0.56,0.23-1.06,0.54-1.39c0.31-0.32,0.78-0.56,1.4-0.56c0.55,0,1.04,0.21,1.38,0.54c0.33,0.32,0.56,0.81,0.56,1.42
						c0,0.28-0.06,0.51-0.15,0.72c-0.09,0.22-0.21,0.37-0.35,0.5l0.62,0.7l-0.78,0.1L1694.12,48.32z M1694.06,47.33
						c0.13-0.19,0.21-0.39,0.21-0.67c0-0.4-0.16-0.67-0.31-0.82c-0.2-0.22-0.49-0.33-0.79-0.33c-0.33,0-0.61,0.15-0.78,0.33
						c-0.2,0.22-0.31,0.55-0.31,0.84c0,0.3,0.1,0.59,0.3,0.81c0.18,0.19,0.42,0.33,0.77,0.33c0.15,0,0.29-0.03,0.43-0.1l-0.64-0.66
						l0.8-0.09L1694.06,47.33z"/>
					<path class="st1" d="M1697.01,45.52v3h-0.82v-3h-0.78V44.8h2.38v0.73H1697.01z"/>
					<path class="st1" d="M1698.6,48.52l0.94-1.22c-0.12,0.04-0.24,0.06-0.36,0.06c-0.39,0-0.7-0.14-0.9-0.35
						c-0.19-0.2-0.31-0.5-0.31-0.9c0-0.55,0.24-0.86,0.35-0.97c0.35-0.38,0.84-0.42,1.12-0.42c0.56,0,0.88,0.2,1.07,0.37
						c0.18,0.17,0.36,0.48,0.36,0.94c0,0.23-0.05,0.51-0.16,0.76c-0.09,0.21-0.25,0.46-0.42,0.69l-0.81,1.12L1698.6,48.52z
						 M1699.01,45.59c-0.07,0.07-0.19,0.21-0.19,0.47c0,0.23,0.08,0.39,0.18,0.48c0.11,0.11,0.27,0.16,0.43,0.16
						c0.18,0,0.33-0.07,0.43-0.16c0.09-0.08,0.18-0.23,0.18-0.49c0-0.18-0.05-0.32-0.18-0.45c-0.09-0.08-0.22-0.17-0.43-0.17
						C1699.27,45.42,1699.12,45.48,1699.01,45.59z"/>
				</g>
				<path class="st1" d="M1704.97,45.41h-1.37v0.82h1.31v0.62h-1.31v1.01h1.37v0.62h-2.11v-3.69h2.11V45.41z M1707.08,44.79
					c0.52,0,0.79,0.13,0.97,0.28c0.29,0.24,0.38,0.55,0.38,0.83c0,0.36-0.15,0.68-0.44,0.87c-0.1,0.07-0.23,0.13-0.42,0.16
					l1.19,1.56h-0.92l-1.02-1.48h-0.09v1.48h-0.74v-3.69H1707.08z M1706.72,46.49h0.21c0.14,0,0.73-0.02,0.73-0.56
					c0-0.55-0.58-0.55-0.72-0.55h-0.22V46.49z M1710.64,44.79c0.43,0,0.72,0.04,1,0.28c0.31,0.27,0.39,0.63,0.39,0.89
					c0,0.14-0.02,0.54-0.31,0.82c-0.21,0.2-0.52,0.33-0.96,0.33h-0.48v1.37h-0.74v-3.69H1710.64z M1710.28,46.5h0.3
					c0.14,0,0.33,0,0.48-0.12c0.14-0.11,0.21-0.27,0.21-0.43c0-0.2-0.1-0.34-0.21-0.42c-0.15-0.11-0.35-0.12-0.52-0.12h-0.26V46.5z"
					/>
				<path class="st145" d="M1715.4,47.73h4.3 M1715.4,46.37h4.3 M1715.4,45.02h4.3"/>
				<rect x="1713.63" y="44.58" class="st37" width="7.22" height="4.19"/>
				<path class="st146" d="M1715.02,71.27h-27.57c-0.16,0-0.29-0.13-0.29-0.29V57.64c0-0.16,0.13-0.29,0.29-0.29h27.57
					c0.16,0,0.29,0.13,0.29,0.29v13.35C1715.3,71.14,1715.17,71.27,1715.02,71.27z"/>
				<path class="st47" d="M1695.31,61.71h-2.93v1.93h2.59v1.23h-2.59v2.04h2.93v1.26h-4.47v-7.72h4.47V61.71z M1697.82,60.46v7.71
					h1.55v-3h0.73l1.7,3h1.79l-1.84-3.13c1.24-0.33,1.76-1.28,1.76-2.22c0-1.29-0.93-2.36-2.78-2.36H1697.82z M1700.65,61.74
					c0.86,0,1.25,0.43,1.25,1.12c0,0.7-0.39,1.15-1.25,1.15h-1.29v-2.26H1700.65 M1708.84,65.21c1.99,0,2.78-1.19,2.78-2.36
					c0-1.34-0.93-2.39-2.78-2.39H1706v7.71h1.55v-2.96H1708.84 M1707.54,63.96v-2.24h1.23c0.87,0,1.26,0.42,1.26,1.13
					c0,0.68-0.39,1.12-1.26,1.12H1707.54z"/>
				<g>
					<path class="st47" d="M1756.56,177.51c0,3.75,1.55,7.14,4.06,9.54l-8.81,8.81c-4.75-4.67-7.7-11.16-7.7-18.35
						c0-14.21,11.51-25.72,25.72-25.72v12.45C1762.5,164.24,1756.56,170.19,1756.56,177.51"/>
					<path class="st99" d="M1795.55,177.51h-12.45c0-7.33-5.94-13.27-13.27-13.27v-12.45
						C1784.04,151.79,1795.55,163.3,1795.55,177.51"/>
					<path class="st18" d="M1795.55,177.51c0,14.21-11.51,25.72-25.72,25.72c-7.02,0-13.38-2.81-18.02-7.37l8.81-8.81
						c2.39,2.31,5.64,3.73,9.21,3.73c7.33,0,13.27-5.94,13.27-13.27H1795.55z"/>
				</g>
				<g>
					<path class="st38" d="M1769.83,203.24v-12.45c7.33,0,13.27-5.94,13.27-13.27h12.45
						C1795.55,191.72,1784.04,203.24,1769.83,203.24"/>
				</g>
				<g>
					<path class="st100" d="M1879.98,176.96h-74.49c-0.22,0-0.4-0.49-0.4-1.09v-6.64c0-0.6,0.18-1.09,0.4-1.09h74.49
						c0.22,0,0.4,0.49,0.4,1.09v6.64C1880.38,176.47,1880.2,176.96,1879.98,176.96"/>
					<path class="st101" d="M1879.98,185.72h-74.49c-0.22,0-0.4-0.17-0.4-0.37v-2.25c0-0.2,0.18-0.37,0.4-0.37h74.49
						c0.22,0,0.4,0.17,0.4,0.37v2.25C1880.38,185.55,1880.2,185.72,1879.98,185.72"/>
					<path class="st101" d="M1862.79,194.48h-57.3c-0.22,0-0.4-0.17-0.4-0.37v-2.25c0-0.2,0.18-0.37,0.4-0.37h57.3
						c0.22,0,0.4,0.17,0.4,0.37v2.25C1863.19,194.31,1863.01,194.48,1862.79,194.48"/>
					<path class="st6" d="M1862.79,203.24h-57.3c-0.22,0-0.4-0.17-0.4-0.37v-2.25c0-0.2,0.18-0.37,0.4-0.37h57.3
						c0.22,0,0.4,0.17,0.4,0.37v2.25C1863.19,203.07,1863.01,203.24,1862.79,203.24"/>
				</g>
				<g>
					<path class="st100" d="M1991.21,95.46h-49.13c-0.15,0-0.27-0.19-0.27-0.43v-2.62c0-0.24,0.12-0.43,0.27-0.43h49.13
						c0.15,0,0.27,0.19,0.27,0.43v2.62C1991.48,95.27,1991.36,95.46,1991.21,95.46"/>
					<path class="st101" d="M1991.21,105.63h-49.13c-0.15,0-0.27-0.19-0.27-0.43v-2.62c0-0.24,0.12-0.43,0.27-0.43h49.13
						c0.15,0,0.27,0.19,0.27,0.43v2.62C1991.48,105.44,1991.36,105.63,1991.21,105.63"/>
					<path class="st101" d="M1991.13,115.8h-48.98c-0.19,0-0.34-0.19-0.34-0.43v-2.62c0-0.24,0.15-0.43,0.34-0.43h48.98
						c0.19,0,0.34,0.19,0.34,0.43v2.62C1991.48,115.61,1991.32,115.8,1991.13,115.8"/>
					<path class="st6" d="M1991.13,125.96h-48.98c-0.19,0-0.34-0.19-0.34-0.43v-2.62c0-0.24,0.15-0.43,0.34-0.43h48.98
						c0.19,0,0.34,0.19,0.34,0.43v2.62C1991.48,125.77,1991.32,125.96,1991.13,125.96"/>
				</g>
				<g>
					<g>
						<path class="st102" d="M1881.41,125.96h51.28c0.57,0,1.03-0.43,1.03-0.97V92.73c0-0.53-0.46-0.97-1.03-0.97h-51.28
							c-0.57,0-1.03,0.43-1.03,0.97V125C1880.38,125.53,1880.84,125.96,1881.41,125.96"/>
						<path class="st1" d="M1884.51,113.11c-0.19,0-0.34-0.14-0.34-0.32v-0.96c0-0.7,0.61-1.28,1.36-1.28h1.36v-1.38
							c0-0.18,0.15-0.32,0.34-0.32h1.13c0.19,0,0.34,0.14,0.34,0.32v1.38h3.63v-1.38c0-0.18,0.15-0.32,0.34-0.32h1.13
							c0.19,0,0.34,0.14,0.34,0.32v1.38h1.36c0.75,0,1.36,0.57,1.36,1.28v0.96c0,0.18-0.15,0.32-0.34,0.32H1884.51z M1896.52,113.96
							c0.19,0,0.34,0.14,0.34,0.32v6.91c0,0.7-0.61,1.28-1.36,1.28h-9.97c-0.75,0-1.36-0.57-1.36-1.28v-6.91
							c0-0.18,0.15-0.32,0.34-0.32H1896.52z M1893.15,115.76c-0.13-0.12-0.35-0.13-0.48,0l-3,2.8l-1.3-1.23
							c-0.13-0.13-0.35-0.13-0.48,0l-0.8,0.75c-0.13,0.12-0.13,0.33,0,0.45l2.34,2.21c0.13,0.12,0.35,0.13,0.48,0l4.05-3.77
							c0.13-0.12,0.13-0.33,0-0.45L1893.15,115.76z"/>
					</g>
					<path class="st1" d="M1929.59,114.36h-27.94c-0.08,0-0.15-0.07-0.15-0.15v-0.94c0-0.09,0.07-0.15,0.15-0.15h27.94
						c0.08,0,0.15,0.07,0.15,0.15v0.94C1929.74,114.29,1929.67,114.36,1929.59,114.36"/>
					<path class="st1" d="M1929.59,118.03h-27.94c-0.08,0-0.15-0.07-0.15-0.15v-0.94c0-0.09,0.07-0.15,0.15-0.15h27.94
						c0.08,0,0.15,0.07,0.15,0.15v0.94C1929.74,117.96,1929.67,118.03,1929.59,118.03"/>
					<path class="st1" d="M1923.14,121.69h-21.49c-0.08,0-0.15-0.07-0.15-0.15v-0.94c0-0.09,0.07-0.15,0.15-0.15h21.49
						c0.08,0,0.15,0.07,0.15,0.15v0.94C1923.29,121.62,1923.22,121.69,1923.14,121.69"/>
				</g>
			</g>
		</g>
	</g>
</g>
<g id="Layer_4">
</g>
<g id="Layer_6">
</g>
</svg>
